<mxfile host="app.diagrams.net" modified="2023-12-05T01:22:51.381Z" agent="Mozilla/5.0 (Macintosh; Intel Mac OS X 10_15_7) AppleWebKit/537.36 (KHTML, like Gecko) Chrome/119.0.0.0 Safari/537.36" etag="z1yw2-Y4EuioFFBvuls2" version="22.1.5" type="github">
  <diagram id="3228e29e-7158-1315-38df-8450db1d8a1d" name="Page-1">
    <mxGraphModel dx="1306" dy="364" grid="0" gridSize="10" guides="1" tooltips="1" connect="1" arrows="1" fold="1" page="1" pageScale="1" pageWidth="700" pageHeight="400" background="#EFF1F3" math="0" shadow="0">
      <root>
        <mxCell id="0" />
        <mxCell id="1" parent="0" />
        <mxCell id="qhKZVVkVm_sroseEV1Tr-1" value="" style="shape=image;verticalLabelPosition=bottom;labelBackgroundColor=default;verticalAlign=top;aspect=fixed;imageAspect=0;image=data:image/svg+xml,PHN2ZyB4bWxuczp4bGluaz0iaHR0cDovL3d3dy53My5vcmcvMTk5OS94bGluayIgeG1sbnM9Imh0dHA6Ly93d3cudzMub3JnLzIwMDAvc3ZnIiBoZWlnaHQ9IjIwMCIgd2lkdGg9IjIwMCIgdmVyc2lvbj0iMS4xIiB2aWV3Qm94PSIwIDAgMTAyNCAxMDI0IiBjbGFzcz0iaWNvbiI+PHBhdGggZmlsbD0iIzRhOTA5YyIgZD0iTTkxMiA3NTJIMTEyYy05LjYgMC0xNi02LjQtMTYtMTZWMjcydi0zLjJjMC0xNy42IDgtMzMuNiAyMC44LTQ0LjggMTEuMi05LjYgMjcuMi0xNiA0NC44LTE2SDg2NGMzNS4yIDAgNjQgMzAuNCA2Mi40IDY1LjZWNzM2YzEuNiA5LjYtNC44IDE2LTE0LjQgMTZ6TTEyOCA3MjBoNzY4VjI3MmMwLTE3LjYtMTQuNC0zMi0zMi0zMkgxNjEuNmMtOS42IDAtMTcuNiAzLjItMjQgOC02LjQgNi40LTkuNiAxNC40LTkuNiAyMi40VjcyMHoiLz48cGF0aCBmaWxsPSIjNGE5MDljIiBkPSJNODQ4IDY4OEgxNzZjLTkuNiAwLTE2LTYuNC0xNi0xNlYyODhjMC05LjYgNi40LTE2IDE2LTE2aDY3MmM5LjYgMCAxNiA2LjQgMTYgMTZ2Mzg0YzAgOS42LTYuNCAxNi0xNiAxNnogbS02NTYtMzJoNjQwVjMwNEgxOTJ2MzUyek04My4yIDg0OGMtMzAuNC0xLjYtNTIuOC0yNy4yLTUxLjItNTZWNzM2YzAtOS42IDYuNC0xNiAxNi0xNmg5MjhjOS42IDAgMTYgNi40IDE2IDE2djU2YzEuNiAyOC44LTIyLjQgNTQuNC01MS4yIDU2SDgzLjJ6TTY0IDc1MnY0MGMwIDYuNCAxLjYgMTIuOCA0LjggMTYgNC44IDQuOCA5LjYgOCAxNiA4aDg1NmMxMS4yIDAgMjAuOC0xMS4yIDIwLjgtMjIuNFY3NTJINjR6Ii8+PC9zdmc+;" vertex="1" parent="1">
          <mxGeometry x="261.5" y="626" width="171" height="171" as="geometry" />
        </mxCell>
        <mxCell id="pXd1zFkyFpU_JRNtRcWd-1" value="" style="shape=image;verticalLabelPosition=bottom;labelBackgroundColor=default;verticalAlign=top;aspect=fixed;imageAspect=0;image=data:image/svg+xml,PHN2ZyB4bWxuczp4bGluaz0iaHR0cDovL3d3dy53My5vcmcvMTk5OS94bGluayIgeG1sbnM9Imh0dHA6Ly93d3cudzMub3JnLzIwMDAvc3ZnIiBoZWlnaHQ9IjIwMCIgd2lkdGg9IjIwMCIgdmVyc2lvbj0iMS4xIiB2aWV3Qm94PSIwIDAgMTAyNCAxMDI0IiBjbGFzcz0iaWNvbiI+PHBhdGggZmlsbD0iIzRhOTA5YyIgZD0iTTkxOC45MDUyNjMgMzI4Ljc1Nzg5NWMzNS4wMzE1NzkgMCA2MS45Nzg5NDctMjYuOTQ3MzY4IDYxLjk3ODk0OC02MS45Nzg5NDhWOTcuMDEwNTI2YzAtMzIuMzM2ODQyLTI2Ljk0NzM2OC02MS45Nzg5NDctNjEuOTc4OTQ4LTYxLjk3ODk0N0gxMDUuMDk0NzM3Yy0zNS4wMzE1NzkgMC02MS45Nzg5NDcgMjYuOTQ3MzY4LTYxLjk3ODk0OCA2MS45Nzg5NDdWMjY5LjQ3MzY4NGMwIDM1LjAzMTU3OSAyNi45NDczNjggNjEuOTc4OTQ3IDYxLjk3ODk0OCA2MS45Nzg5NDhoNzIuNzU3ODk1djM1LjAzMTU3OUgxMDUuMDk0NzM3Yy0zNS4wMzE1NzkgMC02MS45Nzg5NDcgMjYuOTQ3MzY4LTYxLjk3ODk0OCA2MS45Nzg5NDd2MTcyLjQ2MzE1OGMwIDM1LjAzMTU3OSAyNi45NDczNjggNjEuOTc4OTQ3IDYxLjk3ODk0OCA2MS45Nzg5NDdoNzIuNzU3ODk1djM1LjAzMTU3OUgxMDUuMDk0NzM3Yy0zNS4wMzE1NzkgMC02MS45Nzg5NDcgMjYuOTQ3MzY4LTYxLjk3ODk0OCA2MS45Nzg5NDd2MTcyLjQ2MzE1OGMwIDM1LjAzMTU3OSAyNi45NDczNjggNjEuOTc4OTQ3IDYxLjk3ODk0OCA2MS45Nzg5NDhIOTE2LjIxMDUyNmMzNS4wMzE1NzkgMCA2MS45Nzg5NDctMjYuOTQ3MzY4IDYxLjk3ODk0OC02MS45Nzg5NDhWNzU0LjUyNjMxNmMwLTMyLjMzNjg0Mi0yNi45NDczNjgtNjEuOTc4OTQ3LTYxLjk3ODk0OC02MS45Nzg5NDhoLTcyLjc1Nzg5NHYtMzUuMDMxNTc5SDkxNi4yMTA1MjZjMzUuMDMxNTc5IDAgNjEuOTc4OTQ3LTI2Ljk0NzM2OCA2MS45Nzg5NDgtNjEuOTc4OTQ3di0xNzIuNDYzMTU4YzAtMzIuMzM2ODQyLTI2Ljk0NzM2OC02MS45Nzg5NDctNjEuOTc4OTQ4LTYxLjk3ODk0N2gtNzIuNzU3ODk0di0zNS4wMzE1NzloNzUuNDUyNjMxek04MC44NDIxMDUgMjY5LjQ3MzY4NFY5Ny4wMTA1MjZjMC0xMy40NzM2ODQgMTAuNzc4OTQ3LTI0LjI1MjYzMiAyNC4yNTI2MzItMjQuMjUyNjMxaDgxMy44MTA1MjZjMTMuNDczNjg0IDAgMjQuMjUyNjMyIDEwLjc3ODk0NyAyNC4yNTI2MzIgMjQuMjUyNjMxVjI2OS40NzM2ODRjMCAxMy40NzM2ODQtMTAuNzc4OTQ3IDI0LjI1MjYzMi0yNC4yNTI2MzIgMjQuMjUyNjMySDEwNS4wOTQ3MzdjLTEzLjQ3MzY4NC0yLjY5NDczNy0yNC4yNTI2MzItMTAuNzc4OTQ3LTI0LjI1MjYzMi0yNC4yNTI2MzJ6IG04NjIuMzE1NzkgNDg1LjA1MjYzMnYxNzIuNDYzMTU4YzAgMTMuNDczNjg0LTEwLjc3ODk0NyAyNC4yNTI2MzItMjQuMjUyNjMyIDI0LjI1MjYzMUgxMDUuMDk0NzM3Yy0xMy40NzM2ODQgMC0yNC4yNTI2MzItMTAuNzc4OTQ3LTI0LjI1MjYzMi0yNC4yNTI2MzFWNzU0LjUyNjMxNmMwLTEzLjQ3MzY4NCAxMC43Nzg5NDctMjQuMjUyNjMyIDI0LjI1MjYzMi0yNC4yNTI2MzJoODEzLjgxMDUyNmMxMy40NzM2ODQgMi42OTQ3MzcgMjQuMjUyNjMyIDEwLjc3ODk0NyAyNC4yNTI2MzIgMjQuMjUyNjMyeiBtLTEzNC43MzY4NDItNTkuMjg0MjExSDIxNS41Nzg5NDd2LTM1LjAzMTU3OWg1OTIuODQyMTA2djM1LjAzMTU3OXogbTEzNC43MzY4NDItMjY5LjQ3MzY4NHYxNzIuNDYzMTU4YzAgMTMuNDczNjg0LTEwLjc3ODk0NyAyNC4yNTI2MzItMjQuMjUyNjMyIDI0LjI1MjYzMkgxMDUuMDk0NzM3Yy0xMy40NzM2ODQgMC0yNC4yNTI2MzItMTAuNzc4OTQ3LTI0LjI1MjYzMi0yNC4yNTI2MzJ2LTE3Mi40NjMxNThjMC0xMy40NzM2ODQgMTAuNzc4OTQ3LTI0LjI1MjYzMiAyNC4yNTI2MzItMjQuMjUyNjMyaDgxMy44MTA1MjZjMTMuNDczNjg0IDAgMjQuMjUyNjMyIDEwLjc3ODk0NyAyNC4yNTI2MzIgMjQuMjUyNjMyeiBtLTEzNC43MzY4NDItNjEuOTc4OTQ3SDIxNS41Nzg5NDd2LTM1LjAzMTU3OWg1OTIuODQyMTA2djM1LjAzMTU3OXoiLz48cGF0aCBmaWxsPSIjNGE5MDljIiBkPSJNMzg4LjA0MjEwNSAxODMuMjQyMTA1YzAtMTAuNzc4OTQ3LTguMDg0MjExLTE4Ljg2MzE1OC0xOC44NjMxNTgtMTguODYzMTU4SDE1MC45MDUyNjNjLTEwLjc3ODk0NyAwLTE4Ljg2MzE1OCA4LjA4NDIxMS0xOC44NjMxNTggMTguODYzMTU4czguMDg0MjExIDE4Ljg2MzE1OCAxOC44NjMxNTggMTguODYzMTU4aDIxOC4yNzM2ODRjMTAuNzc4OTQ3IDAgMTguODYzMTU4LTguMDg0MjExIDE4Ljg2MzE1OC0xOC44NjMxNTh6TTU3Ni42NzM2ODQgMjM0LjQ0MjEwNWMyNi45NDczNjggMCA1MS4yLTIxLjU1Nzg5NSA1MS4yLTUxLjIgMC0yNi45NDczNjgtMjEuNTU3ODk1LTUxLjItNTEuMi01MS4ycy01MS4yIDIxLjU1Nzg5NS01MS4yIDUxLjJjMCAyNi45NDczNjggMjQuMjUyNjMyIDUxLjIgNTEuMiA1MS4yeiBtMC02NC42NzM2ODRjOC4wODQyMTEgMCAxMy40NzM2ODQgNS4zODk0NzQgMTMuNDczNjg0IDEzLjQ3MzY4NHMtNS4zODk0NzQgMTMuNDczNjg0LTEzLjQ3MzY4NCAxMy40NzM2ODQtMTMuNDczNjg0LTguMDg0MjExLTEzLjQ3MzY4NC0xMy40NzM2ODRjMC04LjA4NDIxMSA1LjM4OTQ3NC0xMy40NzM2ODQgMTMuNDczNjg0LTEzLjQ3MzY4NHpNNzA4LjcxNTc4OSAyMzQuNDQyMTA1YzI2Ljk0NzM2OCAwIDUxLjItMjEuNTU3ODk1IDUxLjItNTEuMiAwLTI2Ljk0NzM2OC0yMS41NTc4OTUtNTEuMi01MS4yLTUxLjItMjYuOTQ3MzY4IDAtNTEuMiAyMS41NTc4OTUtNTEuMiA1MS4yIDAgMjYuOTQ3MzY4IDI0LjI1MjYzMiA1MS4yIDUxLjIgNTEuMnogbTAtNjQuNjczNjg0YzguMDg0MjExIDAgMTMuNDczNjg0IDUuMzg5NDc0IDEzLjQ3MzY4NSAxMy40NzM2ODRzLTUuMzg5NDc0IDEzLjQ3MzY4NC0xMy40NzM2ODUgMTMuNDczNjg0LTEzLjQ3MzY4NC04LjA4NDIxMS0xMy40NzM2ODQtMTMuNDczNjg0YzAtOC4wODQyMTEgNS4zODk0NzQtMTMuNDczNjg0IDEzLjQ3MzY4NC0xMy40NzM2ODR6TTg0MC43NTc4OTUgMjM0LjQ0MjEwNWMyNi45NDczNjggMCA1MS4yLTIxLjU1Nzg5NSA1MS4yLTUxLjIgMC0yNi45NDczNjgtMjEuNTU3ODk1LTUxLjItNTEuMi01MS4yLTI2Ljk0NzM2OCAwLTUxLjIgMjEuNTU3ODk1LTUxLjIgNTEuMiAwIDI2Ljk0NzM2OCAyMS41NTc4OTUgNTEuMiA1MS4yIDUxLjJ6IG0wLTY0LjY3MzY4NGM4LjA4NDIxMSAwIDEzLjQ3MzY4NCA1LjM4OTQ3NCAxMy40NzM2ODQgMTMuNDczNjg0cy01LjM4OTQ3NCAxMy40NzM2ODQtMTMuNDczNjg0IDEzLjQ3MzY4NC0xMy40NzM2ODQtOC4wODQyMTEtMTMuNDczNjg0LTEzLjQ3MzY4NGMwLTguMDg0MjExIDUuMzg5NDc0LTEzLjQ3MzY4NCAxMy40NzM2ODQtMTMuNDczNjg0ek0zNjkuMTc4OTQ3IDQ5My4xMzY4NDJIMTUwLjkwNTI2M2MtMTAuNzc4OTQ3IDAtMTguODYzMTU4IDguMDg0MjExLTE4Ljg2MzE1OCAxOC44NjMxNThzOC4wODQyMTEgMTguODYzMTU4IDE4Ljg2MzE1OCAxOC44NjMxNThoMjE4LjI3MzY4NGMxMC43Nzg5NDcgMCAxOC44NjMxNTgtOC4wODQyMTEgMTguODYzMTU4LTE4Ljg2MzE1OHMtOC4wODQyMTEtMTguODYzMTU4LTE4Ljg2MzE1OC0xOC44NjMxNTh6TTU3Ni42NzM2ODQgNDYwLjhjLTI2Ljk0NzM2OCAwLTUxLjIgMjEuNTU3ODk1LTUxLjIgNTEuMiAwIDI2Ljk0NzM2OCAyMS41NTc4OTUgNTEuMiA1MS4yIDUxLjJzNTEuMi0yMS41NTc4OTUgNTEuMi01MS4yYzAtMjYuOTQ3MzY4LTI0LjI1MjYzMi01MS4yLTUxLjItNTEuMnogbTAgNjQuNjczNjg0Yy04LjA4NDIxMSAwLTEzLjQ3MzY4NC01LjM4OTQ3NC0xMy40NzM2ODQtMTMuNDczNjg0czUuMzg5NDc0LTEzLjQ3MzY4NCAxMy40NzM2ODQtMTMuNDczNjg0IDEzLjQ3MzY4NCA1LjM4OTQ3NCAxMy40NzM2ODQgMTMuNDczNjg0LTUuMzg5NDc0IDEzLjQ3MzY4NC0xMy40NzM2ODQgMTMuNDczNjg0ek03MDguNzE1Nzg5IDQ2MC44Yy0yNi45NDczNjggMC01MS4yIDIxLjU1Nzg5NS01MS4yIDUxLjIgMCAyNi45NDczNjggMjEuNTU3ODk1IDUxLjIgNTEuMiA1MS4yIDI2Ljk0NzM2OCAwIDUxLjItMjEuNTU3ODk1IDUxLjItNTEuMiAwLTI2Ljk0NzM2OC0yNC4yNTI2MzItNTEuMi01MS4yLTUxLjJ6IG0wIDY0LjY3MzY4NGMtOC4wODQyMTEgMC0xMy40NzM2ODQtNS4zODk0NzQtMTMuNDczNjg0LTEzLjQ3MzY4NHM1LjM4OTQ3NC0xMy40NzM2ODQgMTMuNDczNjg0LTEzLjQ3MzY4NCAxMy40NzM2ODQgNS4zODk0NzQgMTMuNDczNjg1IDEzLjQ3MzY4NC01LjM4OTQ3NCAxMy40NzM2ODQtMTMuNDczNjg1IDEzLjQ3MzY4NHpNNzg5LjU1Nzg5NSA1MTJjMCAyNi45NDczNjggMjEuNTU3ODk1IDUxLjIgNTEuMiA1MS4yIDI2Ljk0NzM2OCAwIDUxLjItMjEuNTU3ODk1IDUxLjItNTEuMiAwLTI2Ljk0NzM2OC0yMS41NTc4OTUtNTEuMi01MS4yLTUxLjItMjkuNjQyMTA1IDAtNTEuMiAyNC4yNTI2MzItNTEuMiA1MS4yeiBtNTEuMi0xMy40NzM2ODRjOC4wODQyMTEgMCAxMy40NzM2ODQgNS4zODk0NzQgMTMuNDczNjg0IDEzLjQ3MzY4NHMtNS4zODk0NzQgMTMuNDczNjg0LTEzLjQ3MzY4NCAxMy40NzM2ODQtMTMuNDczNjg0LTUuMzg5NDc0LTEzLjQ3MzY4NC0xMy40NzM2ODQgNS4zODk0NzQtMTMuNDczNjg0IDEzLjQ3MzY4NC0xMy40NzM2ODR6TTM2OS4xNzg5NDcgODIxLjg5NDczN0gxNTAuOTA1MjYzYy0xMC43Nzg5NDcgMC0xOC44NjMxNTggOC4wODQyMTEtMTguODYzMTU4IDE4Ljg2MzE1OHM4LjA4NDIxMSAxOC44NjMxNTggMTguODYzMTU4IDE4Ljg2MzE1OGgyMTguMjczNjg0YzEwLjc3ODk0NyAwIDE4Ljg2MzE1OC04LjA4NDIxMSAxOC44NjMxNTgtMTguODYzMTU4cy04LjA4NDIxMS0xOC44NjMxNTgtMTguODYzMTU4LTE4Ljg2MzE1OHpNNTc2LjY3MzY4NCA3ODkuNTU3ODk1Yy0yNi45NDczNjggMC01MS4yIDIxLjU1Nzg5NS01MS4yIDUxLjJzMjEuNTU3ODk1IDUxLjIgNTEuMiA1MS4yIDUxLjItMjEuNTU3ODk1IDUxLjItNTEuMi0yNC4yNTI2MzItNTEuMi01MS4yLTUxLjJ6IG0wIDY0LjY3MzY4NGMtOC4wODQyMTEgMC0xMy40NzM2ODQtNS4zODk0NzQtMTMuNDczNjg0LTEzLjQ3MzY4NHM1LjM4OTQ3NC0xMy40NzM2ODQgMTMuNDczNjg0LTEzLjQ3MzY4NCAxMy40NzM2ODQgNS4zODk0NzQgMTMuNDczNjg0IDEzLjQ3MzY4NC01LjM4OTQ3NCAxMy40NzM2ODQtMTMuNDczNjg0IDEzLjQ3MzY4NHpNNzA4LjcxNTc4OSA3ODkuNTU3ODk1Yy0yNi45NDczNjggMC01MS4yIDIxLjU1Nzg5NS01MS4yIDUxLjJzMjEuNTU3ODk1IDUxLjIgNTEuMiA1MS4yYzI2Ljk0NzM2OCAwIDUxLjItMjEuNTU3ODk1IDUxLjItNTEuMnMtMjQuMjUyNjMyLTUxLjItNTEuMi01MS4yeiBtMCA2NC42NzM2ODRjLTguMDg0MjExIDAtMTMuNDczNjg0LTUuMzg5NDc0LTEzLjQ3MzY4NC0xMy40NzM2ODRzNS4zODk0NzQtMTMuNDczNjg0IDEzLjQ3MzY4NC0xMy40NzM2ODQgMTMuNDczNjg0IDUuMzg5NDc0IDEzLjQ3MzY4NSAxMy40NzM2ODQtNS4zODk0NzQgMTMuNDczNjg0LTEzLjQ3MzY4NSAxMy40NzM2ODR6TTc4OS41NTc4OTUgODQwLjc1Nzg5NWMwIDI2Ljk0NzM2OCAyMS41NTc4OTUgNTEuMiA1MS4yIDUxLjIgMjYuOTQ3MzY4IDAgNTEuMi0yMS41NTc4OTUgNTEuMi01MS4ycy0yMS41NTc4OTUtNTEuMi01MS4yLTUxLjJjLTI5LjY0MjEwNSAwLTUxLjIgMjQuMjUyNjMyLTUxLjIgNTEuMnogbTUxLjItMTMuNDczNjg0YzguMDg0MjExIDAgMTMuNDczNjg0IDUuMzg5NDc0IDEzLjQ3MzY4NCAxMy40NzM2ODRzLTUuMzg5NDc0IDEzLjQ3MzY4NC0xMy40NzM2ODQgMTMuNDczNjg0LTEzLjQ3MzY4NC01LjM4OTQ3NC0xMy40NzM2ODQtMTMuNDczNjg0IDUuMzg5NDc0LTEzLjQ3MzY4NCAxMy40NzM2ODQtMTMuNDczNjg0eiIvPjwvc3ZnPg==;" parent="1" vertex="1">
          <mxGeometry x="108.5" y="451" width="108" height="108" as="geometry" />
        </mxCell>
        <mxCell id="pXd1zFkyFpU_JRNtRcWd-2" value="&lt;font color=&quot;#4a909b&quot; style=&quot;font-size: 20px;&quot;&gt;服务A&lt;/font&gt;" style="text;html=1;strokeColor=none;fillColor=none;align=center;verticalAlign=middle;whiteSpace=wrap;rounded=0;fontColor=#666666;" parent="1" vertex="1">
          <mxGeometry x="102" y="559" width="116" height="30" as="geometry" />
        </mxCell>
        <mxCell id="pXd1zFkyFpU_JRNtRcWd-3" value="&lt;font color=&quot;#f19c99&quot; style=&quot;font-size: 19px;&quot;&gt;5s&lt;/font&gt;&lt;font color=&quot;#4a909b&quot; style=&quot;font-size: 19px;&quot;&gt;&amp;nbsp;超时&lt;/font&gt;" style="text;html=1;strokeColor=none;fillColor=none;align=center;verticalAlign=middle;whiteSpace=wrap;rounded=0;" parent="1" vertex="1">
          <mxGeometry x="111.5" y="419" width="97" height="30" as="geometry" />
        </mxCell>
        <mxCell id="pXd1zFkyFpU_JRNtRcWd-4" value="" style="shape=flexArrow;endArrow=classic;html=1;rounded=0;strokeColor=none;fillColor=#4A909B;" parent="1" edge="1">
          <mxGeometry width="50" height="50" relative="1" as="geometry">
            <mxPoint x="299.5" y="499" as="sourcePoint" />
            <mxPoint x="398.5" y="499" as="targetPoint" />
          </mxGeometry>
        </mxCell>
        <mxCell id="pXd1zFkyFpU_JRNtRcWd-5" value="" style="shape=image;verticalLabelPosition=bottom;labelBackgroundColor=default;verticalAlign=top;aspect=fixed;imageAspect=0;image=data:image/svg+xml,PHN2ZyB4bWxuczp4bGluaz0iaHR0cDovL3d3dy53My5vcmcvMTk5OS94bGluayIgeG1sbnM9Imh0dHA6Ly93d3cudzMub3JnLzIwMDAvc3ZnIiBoZWlnaHQ9IjIwMCIgd2lkdGg9IjIwMCIgdmVyc2lvbj0iMS4xIiB2aWV3Qm94PSIwIDAgMTAyNCAxMDI0IiBjbGFzcz0iaWNvbiI+PHBhdGggZmlsbD0iIzRhOTA5YyIgZD0iTTkxOC45MDUyNjMgMzI4Ljc1Nzg5NWMzNS4wMzE1NzkgMCA2MS45Nzg5NDctMjYuOTQ3MzY4IDYxLjk3ODk0OC02MS45Nzg5NDhWOTcuMDEwNTI2YzAtMzIuMzM2ODQyLTI2Ljk0NzM2OC02MS45Nzg5NDctNjEuOTc4OTQ4LTYxLjk3ODk0N0gxMDUuMDk0NzM3Yy0zNS4wMzE1NzkgMC02MS45Nzg5NDcgMjYuOTQ3MzY4LTYxLjk3ODk0OCA2MS45Nzg5NDdWMjY5LjQ3MzY4NGMwIDM1LjAzMTU3OSAyNi45NDczNjggNjEuOTc4OTQ3IDYxLjk3ODk0OCA2MS45Nzg5NDhoNzIuNzU3ODk1djM1LjAzMTU3OUgxMDUuMDk0NzM3Yy0zNS4wMzE1NzkgMC02MS45Nzg5NDcgMjYuOTQ3MzY4LTYxLjk3ODk0OCA2MS45Nzg5NDd2MTcyLjQ2MzE1OGMwIDM1LjAzMTU3OSAyNi45NDczNjggNjEuOTc4OTQ3IDYxLjk3ODk0OCA2MS45Nzg5NDdoNzIuNzU3ODk1djM1LjAzMTU3OUgxMDUuMDk0NzM3Yy0zNS4wMzE1NzkgMC02MS45Nzg5NDcgMjYuOTQ3MzY4LTYxLjk3ODk0OCA2MS45Nzg5NDd2MTcyLjQ2MzE1OGMwIDM1LjAzMTU3OSAyNi45NDczNjggNjEuOTc4OTQ3IDYxLjk3ODk0OCA2MS45Nzg5NDhIOTE2LjIxMDUyNmMzNS4wMzE1NzkgMCA2MS45Nzg5NDctMjYuOTQ3MzY4IDYxLjk3ODk0OC02MS45Nzg5NDhWNzU0LjUyNjMxNmMwLTMyLjMzNjg0Mi0yNi45NDczNjgtNjEuOTc4OTQ3LTYxLjk3ODk0OC02MS45Nzg5NDhoLTcyLjc1Nzg5NHYtMzUuMDMxNTc5SDkxNi4yMTA1MjZjMzUuMDMxNTc5IDAgNjEuOTc4OTQ3LTI2Ljk0NzM2OCA2MS45Nzg5NDgtNjEuOTc4OTQ3di0xNzIuNDYzMTU4YzAtMzIuMzM2ODQyLTI2Ljk0NzM2OC02MS45Nzg5NDctNjEuOTc4OTQ4LTYxLjk3ODk0N2gtNzIuNzU3ODk0di0zNS4wMzE1NzloNzUuNDUyNjMxek04MC44NDIxMDUgMjY5LjQ3MzY4NFY5Ny4wMTA1MjZjMC0xMy40NzM2ODQgMTAuNzc4OTQ3LTI0LjI1MjYzMiAyNC4yNTI2MzItMjQuMjUyNjMxaDgxMy44MTA1MjZjMTMuNDczNjg0IDAgMjQuMjUyNjMyIDEwLjc3ODk0NyAyNC4yNTI2MzIgMjQuMjUyNjMxVjI2OS40NzM2ODRjMCAxMy40NzM2ODQtMTAuNzc4OTQ3IDI0LjI1MjYzMi0yNC4yNTI2MzIgMjQuMjUyNjMySDEwNS4wOTQ3MzdjLTEzLjQ3MzY4NC0yLjY5NDczNy0yNC4yNTI2MzItMTAuNzc4OTQ3LTI0LjI1MjYzMi0yNC4yNTI2MzJ6IG04NjIuMzE1NzkgNDg1LjA1MjYzMnYxNzIuNDYzMTU4YzAgMTMuNDczNjg0LTEwLjc3ODk0NyAyNC4yNTI2MzItMjQuMjUyNjMyIDI0LjI1MjYzMUgxMDUuMDk0NzM3Yy0xMy40NzM2ODQgMC0yNC4yNTI2MzItMTAuNzc4OTQ3LTI0LjI1MjYzMi0yNC4yNTI2MzFWNzU0LjUyNjMxNmMwLTEzLjQ3MzY4NCAxMC43Nzg5NDctMjQuMjUyNjMyIDI0LjI1MjYzMi0yNC4yNTI2MzJoODEzLjgxMDUyNmMxMy40NzM2ODQgMi42OTQ3MzcgMjQuMjUyNjMyIDEwLjc3ODk0NyAyNC4yNTI2MzIgMjQuMjUyNjMyeiBtLTEzNC43MzY4NDItNTkuMjg0MjExSDIxNS41Nzg5NDd2LTM1LjAzMTU3OWg1OTIuODQyMTA2djM1LjAzMTU3OXogbTEzNC43MzY4NDItMjY5LjQ3MzY4NHYxNzIuNDYzMTU4YzAgMTMuNDczNjg0LTEwLjc3ODk0NyAyNC4yNTI2MzItMjQuMjUyNjMyIDI0LjI1MjYzMkgxMDUuMDk0NzM3Yy0xMy40NzM2ODQgMC0yNC4yNTI2MzItMTAuNzc4OTQ3LTI0LjI1MjYzMi0yNC4yNTI2MzJ2LTE3Mi40NjMxNThjMC0xMy40NzM2ODQgMTAuNzc4OTQ3LTI0LjI1MjYzMiAyNC4yNTI2MzItMjQuMjUyNjMyaDgxMy44MTA1MjZjMTMuNDczNjg0IDAgMjQuMjUyNjMyIDEwLjc3ODk0NyAyNC4yNTI2MzIgMjQuMjUyNjMyeiBtLTEzNC43MzY4NDItNjEuOTc4OTQ3SDIxNS41Nzg5NDd2LTM1LjAzMTU3OWg1OTIuODQyMTA2djM1LjAzMTU3OXoiLz48cGF0aCBmaWxsPSIjNGE5MDljIiBkPSJNMzg4LjA0MjEwNSAxODMuMjQyMTA1YzAtMTAuNzc4OTQ3LTguMDg0MjExLTE4Ljg2MzE1OC0xOC44NjMxNTgtMTguODYzMTU4SDE1MC45MDUyNjNjLTEwLjc3ODk0NyAwLTE4Ljg2MzE1OCA4LjA4NDIxMS0xOC44NjMxNTggMTguODYzMTU4czguMDg0MjExIDE4Ljg2MzE1OCAxOC44NjMxNTggMTguODYzMTU4aDIxOC4yNzM2ODRjMTAuNzc4OTQ3IDAgMTguODYzMTU4LTguMDg0MjExIDE4Ljg2MzE1OC0xOC44NjMxNTh6TTU3Ni42NzM2ODQgMjM0LjQ0MjEwNWMyNi45NDczNjggMCA1MS4yLTIxLjU1Nzg5NSA1MS4yLTUxLjIgMC0yNi45NDczNjgtMjEuNTU3ODk1LTUxLjItNTEuMi01MS4ycy01MS4yIDIxLjU1Nzg5NS01MS4yIDUxLjJjMCAyNi45NDczNjggMjQuMjUyNjMyIDUxLjIgNTEuMiA1MS4yeiBtMC02NC42NzM2ODRjOC4wODQyMTEgMCAxMy40NzM2ODQgNS4zODk0NzQgMTMuNDczNjg0IDEzLjQ3MzY4NHMtNS4zODk0NzQgMTMuNDczNjg0LTEzLjQ3MzY4NCAxMy40NzM2ODQtMTMuNDczNjg0LTguMDg0MjExLTEzLjQ3MzY4NC0xMy40NzM2ODRjMC04LjA4NDIxMSA1LjM4OTQ3NC0xMy40NzM2ODQgMTMuNDczNjg0LTEzLjQ3MzY4NHpNNzA4LjcxNTc4OSAyMzQuNDQyMTA1YzI2Ljk0NzM2OCAwIDUxLjItMjEuNTU3ODk1IDUxLjItNTEuMiAwLTI2Ljk0NzM2OC0yMS41NTc4OTUtNTEuMi01MS4yLTUxLjItMjYuOTQ3MzY4IDAtNTEuMiAyMS41NTc4OTUtNTEuMiA1MS4yIDAgMjYuOTQ3MzY4IDI0LjI1MjYzMiA1MS4yIDUxLjIgNTEuMnogbTAtNjQuNjczNjg0YzguMDg0MjExIDAgMTMuNDczNjg0IDUuMzg5NDc0IDEzLjQ3MzY4NSAxMy40NzM2ODRzLTUuMzg5NDc0IDEzLjQ3MzY4NC0xMy40NzM2ODUgMTMuNDczNjg0LTEzLjQ3MzY4NC04LjA4NDIxMS0xMy40NzM2ODQtMTMuNDczNjg0YzAtOC4wODQyMTEgNS4zODk0NzQtMTMuNDczNjg0IDEzLjQ3MzY4NC0xMy40NzM2ODR6TTg0MC43NTc4OTUgMjM0LjQ0MjEwNWMyNi45NDczNjggMCA1MS4yLTIxLjU1Nzg5NSA1MS4yLTUxLjIgMC0yNi45NDczNjgtMjEuNTU3ODk1LTUxLjItNTEuMi01MS4yLTI2Ljk0NzM2OCAwLTUxLjIgMjEuNTU3ODk1LTUxLjIgNTEuMiAwIDI2Ljk0NzM2OCAyMS41NTc4OTUgNTEuMiA1MS4yIDUxLjJ6IG0wLTY0LjY3MzY4NGM4LjA4NDIxMSAwIDEzLjQ3MzY4NCA1LjM4OTQ3NCAxMy40NzM2ODQgMTMuNDczNjg0cy01LjM4OTQ3NCAxMy40NzM2ODQtMTMuNDczNjg0IDEzLjQ3MzY4NC0xMy40NzM2ODQtOC4wODQyMTEtMTMuNDczNjg0LTEzLjQ3MzY4NGMwLTguMDg0MjExIDUuMzg5NDc0LTEzLjQ3MzY4NCAxMy40NzM2ODQtMTMuNDczNjg0ek0zNjkuMTc4OTQ3IDQ5My4xMzY4NDJIMTUwLjkwNTI2M2MtMTAuNzc4OTQ3IDAtMTguODYzMTU4IDguMDg0MjExLTE4Ljg2MzE1OCAxOC44NjMxNThzOC4wODQyMTEgMTguODYzMTU4IDE4Ljg2MzE1OCAxOC44NjMxNThoMjE4LjI3MzY4NGMxMC43Nzg5NDcgMCAxOC44NjMxNTgtOC4wODQyMTEgMTguODYzMTU4LTE4Ljg2MzE1OHMtOC4wODQyMTEtMTguODYzMTU4LTE4Ljg2MzE1OC0xOC44NjMxNTh6TTU3Ni42NzM2ODQgNDYwLjhjLTI2Ljk0NzM2OCAwLTUxLjIgMjEuNTU3ODk1LTUxLjIgNTEuMiAwIDI2Ljk0NzM2OCAyMS41NTc4OTUgNTEuMiA1MS4yIDUxLjJzNTEuMi0yMS41NTc4OTUgNTEuMi01MS4yYzAtMjYuOTQ3MzY4LTI0LjI1MjYzMi01MS4yLTUxLjItNTEuMnogbTAgNjQuNjczNjg0Yy04LjA4NDIxMSAwLTEzLjQ3MzY4NC01LjM4OTQ3NC0xMy40NzM2ODQtMTMuNDczNjg0czUuMzg5NDc0LTEzLjQ3MzY4NCAxMy40NzM2ODQtMTMuNDczNjg0IDEzLjQ3MzY4NCA1LjM4OTQ3NCAxMy40NzM2ODQgMTMuNDczNjg0LTUuMzg5NDc0IDEzLjQ3MzY4NC0xMy40NzM2ODQgMTMuNDczNjg0ek03MDguNzE1Nzg5IDQ2MC44Yy0yNi45NDczNjggMC01MS4yIDIxLjU1Nzg5NS01MS4yIDUxLjIgMCAyNi45NDczNjggMjEuNTU3ODk1IDUxLjIgNTEuMiA1MS4yIDI2Ljk0NzM2OCAwIDUxLjItMjEuNTU3ODk1IDUxLjItNTEuMiAwLTI2Ljk0NzM2OC0yNC4yNTI2MzItNTEuMi01MS4yLTUxLjJ6IG0wIDY0LjY3MzY4NGMtOC4wODQyMTEgMC0xMy40NzM2ODQtNS4zODk0NzQtMTMuNDczNjg0LTEzLjQ3MzY4NHM1LjM4OTQ3NC0xMy40NzM2ODQgMTMuNDczNjg0LTEzLjQ3MzY4NCAxMy40NzM2ODQgNS4zODk0NzQgMTMuNDczNjg1IDEzLjQ3MzY4NC01LjM4OTQ3NCAxMy40NzM2ODQtMTMuNDczNjg1IDEzLjQ3MzY4NHpNNzg5LjU1Nzg5NSA1MTJjMCAyNi45NDczNjggMjEuNTU3ODk1IDUxLjIgNTEuMiA1MS4yIDI2Ljk0NzM2OCAwIDUxLjItMjEuNTU3ODk1IDUxLjItNTEuMiAwLTI2Ljk0NzM2OC0yMS41NTc4OTUtNTEuMi01MS4yLTUxLjItMjkuNjQyMTA1IDAtNTEuMiAyNC4yNTI2MzItNTEuMiA1MS4yeiBtNTEuMi0xMy40NzM2ODRjOC4wODQyMTEgMCAxMy40NzM2ODQgNS4zODk0NzQgMTMuNDczNjg0IDEzLjQ3MzY4NHMtNS4zODk0NzQgMTMuNDczNjg0LTEzLjQ3MzY4NCAxMy40NzM2ODQtMTMuNDczNjg0LTUuMzg5NDc0LTEzLjQ3MzY4NC0xMy40NzM2ODQgNS4zODk0NzQtMTMuNDczNjg0IDEzLjQ3MzY4NC0xMy40NzM2ODR6TTM2OS4xNzg5NDcgODIxLjg5NDczN0gxNTAuOTA1MjYzYy0xMC43Nzg5NDcgMC0xOC44NjMxNTggOC4wODQyMTEtMTguODYzMTU4IDE4Ljg2MzE1OHM4LjA4NDIxMSAxOC44NjMxNTggMTguODYzMTU4IDE4Ljg2MzE1OGgyMTguMjczNjg0YzEwLjc3ODk0NyAwIDE4Ljg2MzE1OC04LjA4NDIxMSAxOC44NjMxNTgtMTguODYzMTU4cy04LjA4NDIxMS0xOC44NjMxNTgtMTguODYzMTU4LTE4Ljg2MzE1OHpNNTc2LjY3MzY4NCA3ODkuNTU3ODk1Yy0yNi45NDczNjggMC01MS4yIDIxLjU1Nzg5NS01MS4yIDUxLjJzMjEuNTU3ODk1IDUxLjIgNTEuMiA1MS4yIDUxLjItMjEuNTU3ODk1IDUxLjItNTEuMi0yNC4yNTI2MzItNTEuMi01MS4yLTUxLjJ6IG0wIDY0LjY3MzY4NGMtOC4wODQyMTEgMC0xMy40NzM2ODQtNS4zODk0NzQtMTMuNDczNjg0LTEzLjQ3MzY4NHM1LjM4OTQ3NC0xMy40NzM2ODQgMTMuNDczNjg0LTEzLjQ3MzY4NCAxMy40NzM2ODQgNS4zODk0NzQgMTMuNDczNjg0IDEzLjQ3MzY4NC01LjM4OTQ3NCAxMy40NzM2ODQtMTMuNDczNjg0IDEzLjQ3MzY4NHpNNzA4LjcxNTc4OSA3ODkuNTU3ODk1Yy0yNi45NDczNjggMC01MS4yIDIxLjU1Nzg5NS01MS4yIDUxLjJzMjEuNTU3ODk1IDUxLjIgNTEuMiA1MS4yYzI2Ljk0NzM2OCAwIDUxLjItMjEuNTU3ODk1IDUxLjItNTEuMnMtMjQuMjUyNjMyLTUxLjItNTEuMi01MS4yeiBtMCA2NC42NzM2ODRjLTguMDg0MjExIDAtMTMuNDczNjg0LTUuMzg5NDc0LTEzLjQ3MzY4NC0xMy40NzM2ODRzNS4zODk0NzQtMTMuNDczNjg0IDEzLjQ3MzY4NC0xMy40NzM2ODQgMTMuNDczNjg0IDUuMzg5NDc0IDEzLjQ3MzY4NSAxMy40NzM2ODQtNS4zODk0NzQgMTMuNDczNjg0LTEzLjQ3MzY4NSAxMy40NzM2ODR6TTc4OS41NTc4OTUgODQwLjc1Nzg5NWMwIDI2Ljk0NzM2OCAyMS41NTc4OTUgNTEuMiA1MS4yIDUxLjIgMjYuOTQ3MzY4IDAgNTEuMi0yMS41NTc4OTUgNTEuMi01MS4ycy0yMS41NTc4OTUtNTEuMi01MS4yLTUxLjJjLTI5LjY0MjEwNSAwLTUxLjIgMjQuMjUyNjMyLTUxLjIgNTEuMnogbTUxLjItMTMuNDczNjg0YzguMDg0MjExIDAgMTMuNDczNjg0IDUuMzg5NDc0IDEzLjQ3MzY4NCAxMy40NzM2ODRzLTUuMzg5NDc0IDEzLjQ3MzY4NC0xMy40NzM2ODQgMTMuNDczNjg0LTEzLjQ3MzY4NC01LjM4OTQ3NC0xMy40NzM2ODQtMTMuNDczNjg0IDUuMzg5NDc0LTEzLjQ3MzY4NCAxMy40NzM2ODQtMTMuNDczNjg0eiIvPjwvc3ZnPg==;" parent="1" vertex="1">
          <mxGeometry x="476" y="452" width="108" height="108" as="geometry" />
        </mxCell>
        <mxCell id="pXd1zFkyFpU_JRNtRcWd-6" value="&lt;font color=&quot;#4a909b&quot; style=&quot;font-size: 19px;&quot;&gt;日志显示: &lt;/font&gt;&lt;font color=&quot;#f19c99&quot; style=&quot;font-size: 19px;&quot;&gt;100ms&lt;/font&gt;" style="text;html=1;strokeColor=none;fillColor=none;align=center;verticalAlign=middle;whiteSpace=wrap;rounded=0;" parent="1" vertex="1">
          <mxGeometry x="451" y="419" width="147" height="30" as="geometry" />
        </mxCell>
        <mxCell id="pXd1zFkyFpU_JRNtRcWd-7" value="&lt;font color=&quot;#4a909b&quot; style=&quot;font-size: 20px;&quot;&gt;服务B&lt;/font&gt;" style="text;html=1;strokeColor=none;fillColor=none;align=center;verticalAlign=middle;whiteSpace=wrap;rounded=0;fontColor=#666666;" parent="1" vertex="1">
          <mxGeometry x="471.5" y="560" width="116" height="30" as="geometry" />
        </mxCell>
        <mxCell id="pXd1zFkyFpU_JRNtRcWd-8" value="&lt;font style=&quot;font-size: 18px;&quot; color=&quot;#4a909b&quot;&gt;@公众号：小白debug&lt;/font&gt;" style="text;html=1;strokeColor=none;fillColor=none;align=center;verticalAlign=middle;whiteSpace=wrap;rounded=0;opacity=50;textOpacity=50;" parent="1" vertex="1">
          <mxGeometry x="253.75" y="517" width="185.5" height="30" as="geometry" />
        </mxCell>
        <mxCell id="Fow9xA_Go4kcRSNt-bnY-5" value="" style="shape=image;verticalLabelPosition=bottom;labelBackgroundColor=default;verticalAlign=top;aspect=fixed;imageAspect=0;image=data:image/svg+xml,PHN2ZyB4bWxuczp4bGluaz0iaHR0cDovL3d3dy53My5vcmcvMTk5OS94bGluayIgeG1sbnM9Imh0dHA6Ly93d3cudzMub3JnLzIwMDAvc3ZnIiBoZWlnaHQ9IjIwMCIgd2lkdGg9IjIwMCIgdmVyc2lvbj0iMS4xIiB2aWV3Qm94PSIwIDAgMTAyNCAxMDI0IiBjbGFzcz0iaWNvbiI+PHBhdGggZmlsbD0iIzM5NDlBQiIgZD0iTTc4OS4zMzMzMzMgNzQ2LjY2NjY2N0M3NjggMjM0LjY2NjY2NyAyMzQuNjY2NjY3IDEyOCAyMzQuNjY2NjY3IDEyOHMyOS4zMTIgNzUuNDU2IDQ4Ljk2IDE3OS44ODI2NjdMMzg0IDM0MS4zMzMzMzNoLTk0LjYxMzMzM2MyLjk0NCAxOC43MzA2NjcgNS41MDQgMzguMDggNy40NDUzMzMgNTcuOTg0TDQyNi42NjY2NjcgNDQ4aC0xMjYuMzc4NjY3YzQuMzUyIDEwMS44MDI2NjctOS42NjQgMjEwLjczMDY2Ny02NS42MjEzMzMgMjk4LjY2NjY2N2g1NTQuNjY2NjY2eiIvPjxwYXRoIGZpbGw9IiMxQTIzN0UiIGQ9Ik03MDQgNzI1LjMzMzMzM2wtNDY5LjMzMzMzMyAyMS4zMzMzMzRoNTU0LjY2NjY2NkM3NjggMjM0LjY2NjY2NyAyMzQuNjY2NjY3IDEyOCAyMzQuNjY2NjY3IDEyOHM3LjE0NjY2NyAxOC40NTMzMzMgMTYuNzY4IDQ5LjY2NGMxMi41MjI2NjcgMy4xMTQ2NjcgMjguMjI0IDcuNDQ1MzMzIDQ4LjY0IDEzLjk5NDY2N0M0MzQuMTc2IDIzOS4yOTYgNjY4LjAxMDY2NyAzOTYuOTkyIDcwNCA3MjUuMzMzMzMzeiIvPjxwYXRoIGZpbGw9IiM5MENBRjkiIGQ9Ik05MzguNjY2NjY3IDcyNS4zMzMzMzNjLTY0IDAtODUuMzMzMzMzLTQyLjY2NjY2Ny04NS4zMzMzMzQtNDIuNjY2NjY2cy0yMS4zMzMzMzMgNDIuNjY2NjY3LTg1LjMzMzMzMyA0Mi42NjY2NjYtODUuMzMzMzMzLTQyLjY2NjY2Ny04NS4zMzMzMzMtNDIuNjY2NjY2LTIxLjMzMzMzMyA0Mi42NjY2NjctODUuMzMzMzM0IDQyLjY2NjY2Ni04NS4zMzMzMzMtNDIuNjY2NjY3LTg1LjMzMzMzMy00Mi42NjY2NjYtMjEuMzMzMzMzIDQyLjY2NjY2Ny04NS4zMzMzMzMgNDIuNjY2NjY2LTg1LjMzMzMzMy00Mi42NjY2NjctODUuMzMzMzM0LTQyLjY2NjY2Ni0yMS4zMzMzMzMgNDIuNjY2NjY3LTg1LjMzMzMzMyA0Mi42NjY2NjYtODUuMzMzMzMzLTQyLjY2NjY2Ny04NS4zMzMzMzMtNDIuNjY2NjY2LTIxLjMzMzMzMyA0Mi42NjY2NjctODUuMzMzMzM0IDQyLjY2NjY2NnYxNzAuNjY2NjY3aDg1My4zMzMzMzR2LTE3MC42NjY2Njd6Ii8+PHBhdGggZmlsbD0iIzIxOTZGMyIgZD0iTTkzOC42NjY2NjcgODEwLjY2NjY2N2MtNjQgMC04NS4zMzMzMzMtNDIuNjY2NjY3LTg1LjMzMzMzNC00Mi42NjY2NjdzLTIxLjMzMzMzMyA0Mi42NjY2NjctODUuMzMzMzMzIDQyLjY2NjY2Ny04NS4zMzMzMzMtNDIuNjY2NjY3LTg1LjMzMzMzMy00Mi42NjY2NjctMjEuMzMzMzMzIDQyLjY2NjY2Ny04NS4zMzMzMzQgNDIuNjY2NjY3LTg1LjMzMzMzMy00Mi42NjY2NjctODUuMzMzMzMzLTQyLjY2NjY2Ny0yMS4zMzMzMzMgNDIuNjY2NjY3LTg1LjMzMzMzMyA0Mi42NjY2NjctODUuMzMzMzMzLTQyLjY2NjY2Ny04NS4zMzMzMzQtNDIuNjY2NjY3LTIxLjMzMzMzMyA0Mi42NjY2NjctODUuMzMzMzMzIDQyLjY2NjY2Ny04NS4zMzMzMzMtNDIuNjY2NjY3LTg1LjMzMzMzMy00Mi42NjY2NjctMjEuMzMzMzMzIDQyLjY2NjY2Ny04NS4zMzMzMzQgNDIuNjY2NjY3djg1LjMzMzMzM2g4NTMuMzMzMzM0di04NS4zMzMzMzN6Ii8+PC9zdmc+;" parent="1" vertex="1">
          <mxGeometry x="322" y="680" width="50" height="50" as="geometry" />
        </mxCell>
        <mxCell id="qhKZVVkVm_sroseEV1Tr-2" value="" style="shape=image;verticalLabelPosition=bottom;labelBackgroundColor=default;verticalAlign=top;aspect=fixed;imageAspect=0;image=data:image/svg+xml,PHN2ZyB4bWxuczp4bGluaz0iaHR0cDovL3d3dy53My5vcmcvMTk5OS94bGluayIgeG1sbnM9Imh0dHA6Ly93d3cudzMub3JnLzIwMDAvc3ZnIiBoZWlnaHQ9IjIwMCIgd2lkdGg9IjIwMCIgdmVyc2lvbj0iMS4xIiB2aWV3Qm94PSIwIDAgMTAyNCAxMDI0IiBjbGFzcz0iaWNvbiI+PHBhdGggZmlsbD0iIzRhOTA5YyIgZD0iTTg1NSA4MjcuNmwtMjMuMSAyMy4xVjYwOC44YzAtMTcuNy0xNC4zLTMyLTMyLTMycy0zMiAxNC4zLTMyIDMydjI0MS45bC0yMy4xLTIzLjFjLTEyLjUtMTIuNS0zMi44LTEyLjUtNDUuMyAwLTYuMyA2LjMtOS40IDE0LjQtOS40IDIyLjZzMy4xIDE2LjQgOS40IDIyLjZsNzcuNyA3Ny43YzAuNCAwLjQgMC44IDAuNyAxLjIgMS4xIDAuMiAwLjEgMC4zIDAuMyAwLjUgMC40IDAuMiAwLjIgMC40IDAuNCAwLjcgMC42IDAuMiAwLjIgMC41IDAuNCAwLjcgMC42IDAuMiAwLjEgMC4zIDAuMyAwLjUgMC40IDAuMyAwLjIgMC41IDAuNCAwLjggMC42IDAuMiAwLjEgMC4zIDAuMiAwLjUgMC4zIDAuMyAwLjIgMC42IDAuNCAwLjkgMC41IDAuMiAwLjEgMC4zIDAuMiAwLjUgMC4zIDAuMyAwLjIgMC42IDAuMyAwLjkgMC41IDAuMiAwLjEgMC4zIDAuMiAwLjUgMC4zIDAuMyAwLjEgMC41IDAuMyAwLjggMC40bDAuNiAwLjNjMC4yIDAuMSAwLjUgMC4yIDAuOCAwLjMgMC4yIDAuMSAwLjUgMC4yIDAuNyAwLjMgMC4yIDAuMSAwLjQgMC4yIDAuNyAwLjMgMC4zIDAuMSAwLjUgMC4yIDAuOCAwLjMgMC4yIDAuMSAwLjQgMC4xIDAuNiAwLjJsMC45IDAuM2MwLjIgMC4xIDAuMyAwLjEgMC41IDAuMSAwLjMgMC4xIDAuNyAwLjIgMSAwLjMgMC4yIDAgMC4zIDAuMSAwLjUgMC4xIDAuMyAwLjEgMC43IDAuMiAxIDAuMiAwLjIgMCAwLjMgMC4xIDAuNSAwLjEgMC4zIDAuMSAwLjcgMC4xIDEgMC4yIDAuMiAwIDAuNCAwIDAuNiAwLjEgMC4zIDAgMC42IDAuMSAxIDAuMSAwLjMgMCAwLjUgMCAwLjggMC4xIDAuMyAwIDAuNSAwIDAuOCAwLjFIODAxLjdjMC4zIDAgMC41IDAgMC44LTAuMSAwLjMgMCAwLjUgMCAwLjgtMC4xIDAuMyAwIDAuNy0wLjEgMS0wLjEgMC4yIDAgMC40IDAgMC42LTAuMSAwLjMtMC4xIDAuNy0wLjEgMS0wLjIgMC4yIDAgMC4zLTAuMSAwLjUtMC4xIDAuMy0wLjEgMC43LTAuMSAxLTAuMiAwLjIgMCAwLjMtMC4xIDAuNS0wLjEgMC4zLTAuMSAwLjctMC4yIDEtMC4zIDAuMiAwIDAuMy0wLjEgMC41LTAuMWwwLjktMC4zYzAuMi0wLjEgMC40LTAuMSAwLjYtMC4yIDAuMy0wLjEgMC41LTAuMiAwLjgtMC4zIDAuMi0wLjEgMC40LTAuMiAwLjctMC4zIDAuMi0wLjEgMC41LTAuMiAwLjctMC4zIDAuMy0wLjEgMC41LTAuMiAwLjgtMC4zbDAuNi0wLjNjMC4zLTAuMSAwLjUtMC4zIDAuOC0wLjQgMC4yLTAuMSAwLjMtMC4yIDAuNS0wLjMgMC4zLTAuMiAwLjYtMC4zIDAuOS0wLjUgMC4yLTAuMSAwLjMtMC4yIDAuNS0wLjMgMC4zLTAuMiAwLjYtMC40IDAuOS0wLjUgMC4yLTAuMSAwLjMtMC4yIDAuNS0wLjMgMC4zLTAuMiAwLjUtMC40IDAuOC0wLjYgMC4yLTAuMSAwLjMtMC4zIDAuNS0wLjQgMC4yLTAuMiAwLjUtMC40IDAuNy0wLjYgMC4yLTAuMiAwLjQtMC40IDAuNy0wLjYgMC4yLTAuMSAwLjMtMC4zIDAuNS0wLjQgMC40LTAuNCAwLjgtMC43IDEuMi0xLjFsNzcuNy03Ny43YzEyLjUtMTIuNSAxMi41LTMyLjggMC00NS4zLTEyLjktMTIuNC0zMy4yLTEyLjQtNDUuNyAwLjF6TTY0MS4yIDI1Ni4xYzAtMTcuNy0xNC4zLTMyLTMyLTMySDIyNS43Yy0xNy43IDAtMzIgMTQuMy0zMiAzMnMxNC4zIDMyIDMyIDMyaDM4My42YzE3LjYgMCAzMS45LTE0LjMgMzEuOS0zMnpNNjQxLjIgNDQ4LjJjMC0xNy43LTE0LjMtMzItMzItMzJIMjI1LjdjLTE3LjcgMC0zMiAxNC4zLTMyIDMyczE0LjMgMzIgMzIgMzJoMzgzLjZjMTcuNiAwIDMxLjktMTQuMyAzMS45LTMyek0yMjUuNyA2MDguM2MtMTcuNyAwLTMyIDE0LjMtMzIgMzJzMTQuMyAzMiAzMiAzMmgxOTEuOGMxNy43IDAgMzItMTQuMyAzMi0zMnMtMTQuMy0zMi0zMi0zMkgyMjUuN3oiLz48cGF0aCBmaWxsPSIjNGE5MDljIiBkPSJNNjA3LjYgODMyLjRIMTU5LjhjLTE3LjYgMC0zMS45LTE0LjMtMzEuOS0zMlYxNjAuMWMwLTE3LjcgMTQuMy0zMiAzMS45LTMyaDUxMy45YzE3LjYgMCAzMS45IDE0LjMgMzEuOSAzMnYzMjAuMmMwIDE3LjcgMTQuMyAzMiAzMS45IDMyIDE3LjYgMCAzMS45LTE0LjMgMzEuOS0zMlYxMjhjMC0zNS40LTI4LjYtNjQtNjMuOS02NEgxMjcuOUM5Mi42IDY0IDY0IDkyLjcgNjQgMTI4djcwNC40YzAgMzUuNCAyOC42IDY0IDYzLjkgNjRoNDc5LjhjMTcuNiAwIDMxLjktMTQuMyAzMS45LTMyIDAtMTcuNi0xNC4zLTMyLTMyLTMyek05MjggNDQ3LjdjLTE3LjcgMC0zMiAxNC4zLTMyIDMydjY0YzAgMTcuNyAxNC4zIDMyIDMyIDMyczMyLTE0LjMgMzItMzJ2LTY0YzAtMTcuNy0xNC4zLTMyLTMyLTMyek05MjggNjcxLjhjLTE3LjcgMC0zMiAxNC4zLTMyIDMydjMyYzAgMTcuNyAxNC4zIDMyIDMyIDMyczMyLTE0LjMgMzItMzJ2LTMyYzAtMTcuNi0xNC4zLTMyLTMyLTMyeiIvPjxwYXRoIGZpbGw9IiM0YTkwOWMiIGQ9Ik03MDMuOSA3MzUuOXYtNjRjMC0xNy43LTE0LjMtMzItMzItMzJzLTMyIDE0LjMtMzIgMzJ2NjRjMCAxNy43IDE0LjMgMzIgMzIgMzIgMTcuNiAwIDMyLTE0LjMgMzItMzJ6Ii8+PC9zdmc+;" vertex="1" parent="1">
          <mxGeometry x="209" y="581" width="59" height="59" as="geometry" />
        </mxCell>
        <mxCell id="qhKZVVkVm_sroseEV1Tr-4" value="" style="shape=flexArrow;endArrow=classic;html=1;rounded=0;strokeColor=none;fillColor=#4A909B;" edge="1" parent="1">
          <mxGeometry width="50" height="50" relative="1" as="geometry">
            <mxPoint x="157.5" y="626" as="sourcePoint" />
            <mxPoint x="234.25" y="705" as="targetPoint" />
          </mxGeometry>
        </mxCell>
        <mxCell id="qhKZVVkVm_sroseEV1Tr-5" value="&lt;font style=&quot;font-size: 19px;&quot; color=&quot;#4a909b&quot;&gt;test.pcap&lt;/font&gt;" style="text;html=1;strokeColor=none;fillColor=none;align=center;verticalAlign=middle;whiteSpace=wrap;rounded=0;fontColor=#666666;" vertex="1" parent="1">
          <mxGeometry x="174.5" y="630" width="116" height="30" as="geometry" />
        </mxCell>
      </root>
    </mxGraphModel>
  </diagram>
</mxfile>
